<svg width="32" height="32" viewBox="0 0 32 32" fill="none" xmlns="http://www.w3.org/2000/svg">
<path d="M22 14C22 16.2 20.8 18.1 19 19.2C19 20.9 20.1 22.4 21.7 22.9C23.8 23.6 25.3 25.3 25.7 27.5L25.9 28.4C26 28.7 25.7 29.1 25.4 29.1H6.70004C6.40004 29.1 6.10004 28.8 6.20004 28.4L6.40004 27.5C6.80004 25.4 8.40003 23.6 10.4 22.9C12 22.4 13.1 20.9 13.1 19.2C11.3 18.1 10.1 16 10.1 13.8V9" stroke="#D1D1D6" stroke-width="2" stroke-miterlimit="10" stroke-linecap="round" stroke-linejoin="round"/>
<path d="M8.3 24.1C6.8 21 6 17.4 6 14C6 6.3 10.5 3 16 3C21.5 3 26 6.3 26 14C26 17.4 25.2 21 23.7 24.1" stroke="#D1D1D6" stroke-width="2" stroke-miterlimit="10" stroke-linejoin="round"/>
<path d="M26.1 13.5C24.8 13.8 23.4 14 22 14C15.1 14 9.4 10.2 9 5.5" stroke="#D1D1D6" stroke-width="2" stroke-miterlimit="10" stroke-linejoin="round"/>
</svg>
