<svg width="32" height="32" viewBox="0 0 32 32" fill="none" xmlns="http://www.w3.org/2000/svg">
<path d="M5 14C5 19.5 9.5 24 15 24C20.5 24 25 19.5 25 14H18" stroke="#BDBDBD" stroke-width="2" stroke-miterlimit="10" stroke-linecap="round" stroke-linejoin="round"/>
<path d="M15 12.2V4C9.5 4 5 8.5 5 14H13.2C14.2 14 15 13.2 15 12.2Z" stroke="#BDBDBD" stroke-width="2" stroke-miterlimit="10" stroke-linecap="round" stroke-linejoin="round"/>
<path d="M27 10.4C25.9 10.4 25 11.2 25 12.2V14" stroke="#BDBDBD" stroke-width="2" stroke-miterlimit="10" stroke-linecap="round" stroke-linejoin="round"/>
<path d="M8 29C9.10457 29 10 28.1046 10 27C10 25.8954 9.10457 25 8 25C6.89543 25 6 25.8954 6 27C6 28.1046 6.89543 29 8 29Z" stroke="#BDBDBD" stroke-width="2" stroke-miterlimit="10" stroke-linecap="round" stroke-linejoin="round"/>
<path d="M22 29C23.1046 29 24 28.1046 24 27C24 25.8954 23.1046 25 22 25C20.8954 25 20 25.8954 20 27C20 28.1046 20.8954 29 22 29Z" stroke="#BDBDBD" stroke-width="2" stroke-miterlimit="10" stroke-linecap="round" stroke-linejoin="round"/>
<path d="M14.0001 13L7.6001 7.29999" stroke="#BDBDBD" stroke-width="2" stroke-miterlimit="10" stroke-linecap="round" stroke-linejoin="round"/>
</svg>
