<svg width="24" height="24" viewBox="0 0 24 24" fill="none" xmlns="http://www.w3.org/2000/svg">
<g clip-path="url(#clip0_3142_3548)">
<path fill-rule="evenodd" clip-rule="evenodd" d="M13.2857 5.78947H-1V4H14.1786C14.6717 4 15.0714 4.40059 15.0714 4.89474V7.57895H19.5357C19.8069 7.57895 20.0635 7.7025 20.2329 7.91475L23.8043 12.3884C23.931 12.5471 24 12.7442 24 12.9474V18.3158C24 18.8099 23.6003 19.2105 23.1071 19.2105H21.169C20.8013 20.2531 19.8091 21 18.6429 21C17.1635 21 15.9643 19.7982 15.9643 18.3158C15.9643 16.8333 17.1635 15.6316 18.6429 15.6316C19.8091 15.6316 20.8013 16.3785 21.169 17.4211H22.2143V13.2612L19.1066 9.36842H15.0714V18.3158C15.0714 18.8099 14.6717 19.2105 14.1786 19.2105H8.82143V17.4211H13.2857V5.78947ZM8.82143 9.36842H0.785714V7.57895H8.82143V9.36842ZM7.03571 12.9474H-1V11.1579H7.03571V12.9474ZM4.35714 17.4211C3.86403 17.4211 3.46429 17.8216 3.46429 18.3158C3.46429 18.8099 3.86403 19.2105 4.35714 19.2105C4.85025 19.2105 5.25 18.8099 5.25 18.3158C5.25 17.8216 4.85025 17.4211 4.35714 17.4211ZM1.67857 18.3158C1.67857 16.8333 2.87781 15.6316 4.35714 15.6316C5.83648 15.6316 7.03571 16.8333 7.03571 18.3158C7.03571 19.7982 5.83648 21 4.35714 21C2.87781 21 1.67857 19.7982 1.67857 18.3158ZM18.6429 17.4211C18.1497 17.4211 17.75 17.8216 17.75 18.3158C17.75 18.8099 18.1497 19.2105 18.6429 19.2105C19.136 19.2105 19.5357 18.8099 19.5357 18.3158C19.5357 17.8216 19.136 17.4211 18.6429 17.4211Z" fill="white"/>
</g>
<defs>
<clipPath id="clip0_3142_3548">
<rect width="24" height="24" fill="white"/>
</clipPath>
</defs>
</svg>
