<svg width="24" height="24" viewBox="0 0 24 24" fill="none" xmlns="http://www.w3.org/2000/svg">
<path fill-rule="evenodd" clip-rule="evenodd" d="M1.33333 19.5H22.6667C23.4 19.5 24 18.9375 24 18.25C24 17.5625 23.4 17 22.6667 17H1.33333C0.6 17 0 17.5625 0 18.25C0 18.9375 0.6 19.5 1.33333 19.5ZM1.33333 13.25H22.6667C23.4 13.25 24 12.6875 24 12C24 11.3125 23.4 10.75 22.6667 10.75H1.33333C0.6 10.75 0 11.3125 0 12C0 12.6875 0.6 13.25 1.33333 13.25ZM0 5.75C0 6.4375 0.6 7 1.33333 7H22.6667C23.4 7 24 6.4375 24 5.75C24 5.0625 23.4 4.5 22.6667 4.5H1.33333C0.6 4.5 0 5.0625 0 5.75Z" fill="white"/>
</svg>
