<svg width="24" height="24" viewBox="0 0 24 24" fill="none" xmlns="http://www.w3.org/2000/svg">
<path d="M12.3659 4C6.66463 4 2 7.31707 2 11.3598C2 13.0183 2.72561 14.4695 3.96951 15.7134C4.4878 16.2317 5.21341 16.75 5.93902 17.1646L5.10976 21C8.11585 20.4817 10.2927 18.6159 10.2927 18.6159C10.9146 18.7195 11.6402 18.8232 12.3659 18.8232C18.0671 18.8232 22.7317 15.5061 22.7317 11.4634C22.7317 7.31707 18.0671 4 12.3659 4Z" stroke="white" stroke-width="2" stroke-miterlimit="10" stroke-linejoin="round"/>
<path d="M17.2383 12.8106C18.0398 12.8106 18.6895 12.1609 18.6895 11.3594C18.6895 10.5579 18.0398 9.9082 17.2383 9.9082C16.4368 9.9082 15.7871 10.5579 15.7871 11.3594C15.7871 12.1609 16.4368 12.8106 17.2383 12.8106Z" fill="white"/>
<path d="M12.3653 12.8106C13.1668 12.8106 13.8165 12.1609 13.8165 11.3594C13.8165 10.5579 13.1668 9.9082 12.3653 9.9082C11.5638 9.9082 10.9141 10.5579 10.9141 11.3594C10.9141 12.1609 11.5638 12.8106 12.3653 12.8106Z" fill="white"/>
<path d="M7.49419 12.8106C8.29568 12.8106 8.94541 12.1609 8.94541 11.3594C8.94541 10.5579 8.29568 9.9082 7.49419 9.9082C6.6927 9.9082 6.04297 10.5579 6.04297 11.3594C6.04297 12.1609 6.6927 12.8106 7.49419 12.8106Z" fill="white"/>
</svg>
