<svg width="24" height="24" viewBox="0 0 24 24" fill="none" xmlns="http://www.w3.org/2000/svg">
<path d="M15.8157 14.0855C14.8434 14.0855 14.1364 13.276 14.1364 12.3767C14.1364 11.837 14.4015 11.3873 14.8434 11.0276C16.2576 9.85841 17.053 7.87978 16.6111 5.81121C16.1692 3.92251 14.7551 2.48351 12.8106 2.12376C9.5404 1.40426 6.71212 3.92251 6.71212 7.07034C6.71212 8.68921 7.41919 10.1282 8.65657 11.0276C9.09849 11.3873 9.27525 11.837 9.27525 12.3767C9.27525 13.366 8.4798 14.0855 7.59596 14.0855C5.03283 14.0855 3 16.154 3 18.7622V20.4711C3 21.2805 3.61869 22 4.50253 22H18.9975C19.7929 22 20.5 21.3704 20.5 20.4711V18.7622C20.4116 16.154 18.3788 14.0855 15.8157 14.0855Z" stroke="white" stroke-width="2" stroke-miterlimit="10"/>
</svg>
