<svg width="24" height="24" viewBox="0 0 24 24" fill="none" xmlns="http://www.w3.org/2000/svg">
<path d="M21 3L17.9085 5.92208H2L4.51186 13H15.9763" stroke="white" stroke-width="2" stroke-miterlimit="10" stroke-linecap="round" stroke-linejoin="round"/>
<path d="M17.5 18C17.5 18.8284 16.8284 19.5 16 19.5C15.1716 19.5 14.5 18.8284 14.5 18C14.5 17.1716 15.1716 16.5 16 16.5C16.8284 16.5 17.5 17.1716 17.5 18Z" fill="white" stroke="white"/>
<path d="M7.5 18C7.5 18.8284 6.82843 19.5 6 19.5C5.17157 19.5 4.5 18.8284 4.5 18C4.5 17.1716 5.17157 16.5 6 16.5C6.82843 16.5 7.5 17.1716 7.5 18Z" fill="white" stroke="white"/>
</svg>
