<svg width="20" height="20" viewBox="0 0 20 20" fill="none" xmlns="http://www.w3.org/2000/svg">
<g clip-path="url(#clip0_2878_2495)">
<path d="M7.14226 5.7146L5.50961 3.26562L3.87695 5.7146L5.91777 7.14318L7.14226 5.7146Z" fill="#FBBC05"/>
<path d="M16.1227 5.7146L14.4901 3.26562L12.8574 5.7146L14.0819 7.34726L16.1227 5.7146Z" fill="#FBBC05"/>
<path d="M13.2656 5.10242L12.8574 5.71467L14.0819 7.34732L16.1227 5.71467L15.6254 4.96875C15.6254 4.96875 14.5915 6.18977 14.0819 6.12283C13.7172 6.07487 13.2656 5.10242 13.2656 5.10242Z" fill="#F4950C"/>
<path d="M6.7341 5.10242L7.14226 5.71467L5.91777 7.34732L3.87695 5.71467L4.3743 4.96875C4.3743 4.96875 5.40818 6.18977 5.91777 6.12283C6.28246 6.07487 6.7341 5.10242 6.7341 5.10242Z" fill="#F4950C"/>
<path d="M3.46947 10.4082H16.5307L19.1838 2.44906L14.0817 6.93886L10.0001 0.816406L5.91845 6.93886L0.816406 2.44906L3.46947 10.4082Z" fill="#FFE161"/>
<path d="M3.46867 10.4082H16.5299C16.9807 10.4082 17.3462 10.7737 17.3462 11.2245C17.3462 11.6753 16.9807 12.0409 16.5299 12.0409H3.46867C3.01785 12.0409 2.65234 11.6753 2.65234 11.2245C2.65234 10.7737 3.01785 10.4082 3.46867 10.4082Z" fill="#FFE161"/>
<path d="M16.5311 10.4082L19.1842 2.44906L14.0822 6.93884L10.0005 0.816406L9.4597 1.62763C9.60807 1.76171 9.80052 1.8362 10.0005 1.83681C10.0005 1.83681 12.6536 6.3266 13.4699 7.55109C14.2862 8.77557 14.7066 9.18373 14.2924 10.4082H12.6536L15.0393 10.5333C15.3468 10.585 15.5544 10.876 15.5028 11.1835C15.4585 11.4472 15.2356 11.6437 14.9685 11.6543L5.30664 12.0409H16.485C16.954 12.0476 17.3397 11.6729 17.3464 11.2039C17.3464 11.1978 17.3466 11.1915 17.3464 11.1854C17.3262 10.7501 16.967 10.4076 16.5311 10.4082Z" fill="#FBBC05"/>
<path d="M0.816326 3.26547C1.26717 3.26547 1.63265 2.89998 1.63265 2.44914C1.63265 1.99829 1.26717 1.63281 0.816326 1.63281C0.365482 1.63281 0 1.99829 0 2.44914C0 2.89998 0.365482 3.26547 0.816326 3.26547Z" fill="#FF1849"/>
<path d="M19.1835 3.26547C19.6344 3.26547 19.9998 2.89998 19.9998 2.44914C19.9998 1.99829 19.6344 1.63281 19.1835 1.63281C18.7327 1.63281 18.3672 1.99829 18.3672 2.44914C18.3672 2.89998 18.7327 3.26547 19.1835 3.26547Z" fill="#FF1849"/>
<path d="M9.99992 1.63265C10.4508 1.63265 10.8162 1.26717 10.8162 0.816326C10.8162 0.365482 10.4508 0 9.99992 0C9.54908 0 9.18359 0.365482 9.18359 0.816326C9.18359 1.26717 9.54908 1.63265 9.99992 1.63265Z" fill="#FF1849"/>
<path d="M5.51068 3.87683C5.84882 3.87683 6.12293 3.60272 6.12293 3.26459C6.12293 2.92646 5.84882 2.65234 5.51068 2.65234C5.17255 2.65234 4.89844 2.92646 4.89844 3.26459C4.89844 3.60272 5.17255 3.87683 5.51068 3.87683Z" fill="#E00E45"/>
<path d="M14.4892 3.87683C14.8273 3.87683 15.1014 3.60272 15.1014 3.26459C15.1014 2.92646 14.8273 2.65234 14.4892 2.65234C14.1511 2.65234 13.877 2.92646 13.877 3.26459C13.877 3.60272 14.1511 3.87683 14.4892 3.87683Z" fill="#E00E45"/>
<path d="M9.57809 13.2656H10.3944C10.6199 13.2656 10.8026 13.4483 10.8026 13.6738V19.5922C10.8026 19.8177 10.6199 20.0003 10.3944 20.0003H9.57809C9.35257 20.0003 9.16992 19.8177 9.16992 19.5922V13.6738C9.16992 13.4483 9.35278 13.2656 9.57809 13.2656Z" fill="#FF1849"/>
<path d="M7.78209 13.7781L6.21637 19.6964C6.16903 19.8754 6.00699 20.0003 5.82188 20.0003H4.8176C4.63229 20.0003 4.47045 19.8756 4.42311 19.6964L2.85739 13.7781C2.79984 13.5601 2.92964 13.3368 3.1476 13.2791C3.18168 13.2701 3.21678 13.2656 3.25188 13.2656H4.07882C4.27147 13.2656 4.43801 13.4005 4.47801 13.5891L5.31984 17.5513L6.16127 13.5891C6.20127 13.4005 6.3678 13.2656 6.56045 13.2656H7.38739C7.6129 13.2656 7.79556 13.4483 7.79556 13.6738C7.79576 13.7091 7.79107 13.7442 7.78209 13.7781Z" fill="#FF1849"/>
<path d="M12.0273 13.6738V19.5922C12.0273 19.8177 12.21 20.0003 12.4355 20.0003H13.2518C13.4773 20.0003 13.66 19.8177 13.66 19.5922V18.1636H14.7075C16.06 18.1636 17.1565 17.0671 17.1565 15.7146C17.1565 14.3622 16.06 13.2656 14.7075 13.2656H12.4355C12.2102 13.2656 12.0273 13.4483 12.0273 13.6738ZM14.6804 16.5309H13.66V14.8983H14.6804C15.1312 14.8983 15.4967 15.2638 15.4967 15.7146C15.4967 16.1654 15.1314 16.5309 14.6804 16.5309Z" fill="#FF1849"/>
<path d="M10.5714 15.1024C10.5714 16.1228 10.7754 19.184 9.75502 19.3881C9.54482 19.4189 9.33155 19.3577 9.16992 19.2197V19.5922C9.16992 19.8177 9.35257 20.0003 9.57808 20.0003H10.3944C10.6199 20.0003 10.8026 19.8177 10.8026 19.5922V13.6738C10.8026 13.4483 10.6199 13.2656 10.3944 13.2656H10.1632C10.5714 13.2656 10.5714 14.082 10.5714 15.1024Z" fill="#E00E45"/>
<path d="M7.1295 14.6942C6.92542 15.7146 6.10909 19.184 5.29276 19.3881C4.94909 19.4869 4.57909 19.4187 4.29297 19.2042L4.42317 19.6964C4.47052 19.8754 4.63256 20.0003 4.81787 20.0003H5.82215C6.00746 20.0003 6.16929 19.8756 6.21664 19.6964L7.78236 13.7781C7.83991 13.5601 7.71011 13.3368 7.49215 13.2791C7.45807 13.2701 7.42297 13.2656 7.38787 13.2656H6.92562C7.33358 13.2656 7.33358 13.6738 7.1295 14.6942Z" fill="#E00E45"/>
<path d="M14.6804 17.7561H13.7053C13.5675 17.7567 13.4561 17.8682 13.4553 18.0059C13.4498 18.8453 13.4559 19.3888 12.6124 19.3888C12.4047 19.3947 12.2002 19.3359 12.0273 19.2204V19.5929C12.0273 19.8184 12.21 20.001 12.4355 20.001H13.2518C13.4773 20.001 13.66 19.8184 13.66 19.5929V18.1643H14.7075C15.9861 18.1639 17.049 17.1792 17.1471 15.9043C16.6298 17.2125 15.4967 17.7561 14.6804 17.7561Z" fill="#E00E45"/>
<path d="M3.33203 10L3.46815 10.4082H16.5294L16.6655 10H3.33203Z" fill="#FBBC05"/>
</g>
<defs>
<clipPath id="clip0_2878_2495">
<rect width="20" height="20" fill="white"/>
</clipPath>
</defs>
</svg>
