<svg width="143" height="32" viewBox="0 0 143 32" fill="none" xmlns="http://www.w3.org/2000/svg">
<path fill-rule="evenodd" clip-rule="evenodd" d="M28.208 7.09839H38.3266C39.2413 7.09839 40.0988 7.49911 40.6704 8.18605C41.2421 8.87299 41.5279 9.73166 41.4708 10.6476L40.4418 26.1038C40.0988 29.4812 37.2976 32 33.9247 32H7.39922C4.02636 32 1.22518 29.424 0.939342 26.0465L0.0246694 10.5331C-0.0896647 9.67442 0.196171 8.7585 0.825008 8.1288C1.39668 7.49911 2.25418 7.09839 3.16886 7.09839H13.2874C13.4589 3.14848 16.7174 0 20.7191 0C24.7208 0 27.9794 3.14848 28.208 7.09839ZM26.4358 7.09839C26.2643 4.12165 23.749 1.71735 20.7191 1.71735C17.6893 1.71735 15.2311 4.12165 15.0024 7.09839H26.4358ZM33.9247 30.2826C36.3829 30.2826 38.4409 28.3936 38.7268 25.932L39.7558 10.4758C39.8129 10.0179 39.6986 9.61717 39.4128 9.33095C39.1269 9.04472 38.7268 8.87299 38.3266 8.87299H3.16886C2.71152 8.87299 2.36852 9.04472 2.08268 9.33095C1.79685 9.61717 1.62535 10.0179 1.68251 10.4186L2.59719 25.9893C2.88302 28.4508 4.94104 30.2826 7.39922 30.2826H33.9247ZM59.9932 11.5059H61.308C61.5367 11.5059 61.651 11.6776 61.651 11.8493V27.2483C61.651 27.42 61.4795 27.5917 61.308 27.5917H59.8217C59.6502 27.5917 59.4787 27.42 59.4787 27.2483V15.8565L53.762 25.4737C53.7048 25.5881 53.5905 25.6454 53.4761 25.6454H52.7901C52.6758 25.6454 52.5615 25.5881 52.5043 25.4737L46.7876 15.9137V27.2483C46.7876 27.42 46.6161 27.5917 46.4446 27.5917H44.9582C44.7867 27.5917 44.6152 27.42 44.6152 27.2483V11.8493C44.6152 11.6776 44.7867 11.5059 44.9582 11.5059H46.2731C46.3874 11.5059 46.5017 11.5631 46.5589 11.6776L53.1903 22.7831L59.7073 11.6776C59.7645 11.5631 59.8788 11.5059 59.9932 11.5059ZM109.042 13.166V11.8493C109.042 11.6776 108.871 11.5059 108.699 11.5059H96.1223C95.9508 11.5059 95.7793 11.6776 95.7793 11.8493V13.166C95.7793 13.3377 95.9508 13.5094 96.1223 13.5094H101.267V27.2483C101.267 27.42 101.439 27.5917 101.61 27.5917H103.154C103.325 27.5917 103.497 27.42 103.497 27.2483V13.5094H108.642C108.928 13.5094 109.042 13.3377 109.042 13.166ZM107.899 25.0166C108.185 24.7303 108.528 24.5586 108.985 24.5586C109.385 24.5586 109.785 24.7303 110.071 24.9593C110.357 25.2455 110.528 25.6462 110.528 26.1042C110.528 26.5622 110.357 26.9629 110.071 27.2491C109.728 27.5353 109.385 27.7071 108.985 27.7071C108.585 27.7071 108.185 27.5353 107.899 27.2491C107.613 26.9629 107.441 26.5622 107.441 26.1042C107.441 25.7035 107.613 25.3028 107.899 25.0166ZM125.449 20.2644C126.078 19.4057 126.364 18.318 126.364 17.1159C126.364 15.3413 125.792 14.0246 124.591 12.9942C123.391 12.0211 121.733 11.5059 119.675 11.5059H113.73C113.558 11.5059 113.387 11.6776 113.387 11.8493V27.2483C113.387 27.42 113.558 27.5917 113.73 27.5917H115.33C115.502 27.5917 115.673 27.42 115.673 27.2483V22.7259H119.618C119.847 22.7259 120.19 22.7259 120.647 22.6686L124.02 27.4772C124.077 27.5917 124.191 27.649 124.306 27.649H125.963C126.249 27.649 126.421 27.3055 126.249 27.0765L122.819 22.2107C123.963 21.81 124.877 21.1803 125.449 20.2644ZM122.934 19.8064C122.19 20.4361 121.047 20.7223 119.618 20.7223H115.731V13.7957C115.731 13.6239 115.845 13.5094 116.016 13.5094H119.618C121.047 13.5094 122.19 13.7957 122.934 14.4254C123.677 15.0551 124.077 15.9137 124.077 17.1159C124.077 18.2608 123.677 19.1767 122.934 19.8064ZM95.1507 17.1159C95.1507 18.318 94.8649 19.4057 94.2361 20.2644C93.6072 21.1803 92.7497 21.81 91.6064 22.2107L95.0364 27.0765C95.2079 27.3055 95.0364 27.649 94.7506 27.649H93.0927C92.9784 27.649 92.8641 27.5917 92.8069 27.4772L89.434 22.6686C88.9767 22.7259 88.6337 22.7259 88.405 22.7259H84.4605V27.2483C84.4605 27.42 84.289 27.5917 84.1175 27.5917H82.5168C82.3453 27.5917 82.1738 27.42 82.1738 27.2483V11.8493C82.1738 11.6776 82.3453 11.5059 82.5168 11.5059H88.4622C90.5202 11.5059 92.1781 12.0211 93.3786 12.9942C94.5791 14.0246 95.1507 15.3413 95.1507 17.1159ZM88.405 20.7223C89.8342 20.7223 90.9776 20.4361 91.7207 19.8064C92.4639 19.1767 92.8641 18.2608 92.8641 17.1159C92.8641 15.9137 92.4639 15.0551 91.7207 14.4254C90.9776 13.7957 89.8342 13.5094 88.405 13.5094H84.8035C84.632 13.5094 84.5177 13.6239 84.5177 13.7957V20.7223H88.405ZM142.657 11.5059H141.114C140.942 11.5059 140.771 11.6776 140.771 11.8493V20.5506C140.771 22.3252 140.371 23.5846 139.627 24.4432C138.827 25.3019 137.741 25.7026 136.255 25.7026C133.225 25.7026 131.738 23.9853 131.738 20.5506V11.8493C131.738 11.6776 131.567 11.5059 131.395 11.5059H129.738C129.566 11.5059 129.395 11.6776 129.395 11.8493V20.6651C129.395 22.9549 129.966 24.7295 131.167 25.9316C132.367 27.1338 134.025 27.7635 136.197 27.7635C138.313 27.7635 140.028 27.1338 141.228 25.9316C142.429 24.7295 143 22.9549 143 20.6078V11.8493C143 11.6776 142.829 11.5059 142.657 11.5059ZM19.6903 12.0783L13.402 18.7187L20.262 27.0193C20.4335 27.2483 20.262 27.5917 19.9762 27.5917H18.204C18.0897 27.5917 17.9753 27.5345 17.9182 27.4772L11.8585 20.4361L8.94293 23.4128V27.2483C8.94293 27.42 8.77143 27.5917 8.59993 27.5917H6.99925C6.82775 27.5917 6.65625 27.42 6.65625 27.2483V11.8493C6.65625 11.6776 6.82775 11.5059 6.99925 11.5059H8.59993C8.77143 11.5059 8.94293 11.6776 8.94293 11.8493V20.4933L17.5752 11.6203C17.6323 11.5631 17.6895 11.5059 17.8038 11.5059H19.4617C19.7475 11.5059 19.919 11.8493 19.6903 12.0783ZM26.0925 14.139C27.0643 13.6238 28.1505 13.3376 29.4081 13.3376C31.1232 13.3376 32.6095 13.91 33.8672 14.9977C33.9815 15.1122 34.2102 15.1122 34.3245 14.9977L35.2963 14.0245C35.4107 13.91 35.4107 13.681 35.2963 13.5665C34.6103 12.8796 33.81 12.3072 32.8382 11.9637C31.8092 11.563 30.6086 11.334 29.351 11.334C27.6931 11.334 26.264 11.6775 24.9491 12.4216C23.6343 13.1086 22.6053 14.0817 21.8621 15.3411C21.1189 16.6005 20.7187 18.0317 20.7187 19.5773C20.7187 21.1229 21.1189 22.554 21.8621 23.8134C22.6053 25.0728 23.6343 26.046 24.9491 26.7329C26.264 27.4198 27.6931 27.8206 29.351 27.8206C30.4943 27.8206 31.5805 27.6488 32.6667 27.3054C33.6385 26.9619 34.5532 26.5039 35.2963 25.9315C35.4107 25.8742 35.4678 25.7025 35.4678 25.588V19.8063C35.4678 19.6345 35.3535 19.52 35.182 19.52H30.1513C29.9798 19.52 29.8655 19.6345 29.8655 19.8063V20.9512C29.8655 21.1229 29.9798 21.2374 30.1513 21.2374H33.2955V24.5004C33.2955 24.6721 33.2383 24.7866 33.0668 24.8438C32.0378 25.4735 30.8373 25.7597 29.5225 25.7597C28.322 25.7597 27.2358 25.4735 26.264 24.9583C25.2921 24.4431 24.5489 23.6989 23.9773 22.7258C23.4056 21.8098 23.1769 20.7222 23.1769 19.5773C23.1769 18.3751 23.4628 17.3447 23.9773 16.3716C24.3774 15.3984 25.1206 14.6542 26.0925 14.139ZM72.7978 11.4492C72.9693 11.4492 73.0836 11.5637 73.1408 11.6782L80.1723 27.0771C80.2295 27.3061 80.058 27.5923 79.8293 27.5923H78.1715C78 27.5923 77.8856 27.4778 77.8285 27.3633L75.7705 22.6693H67.9957L65.9377 27.3633C65.8806 27.5351 65.7091 27.5923 65.5947 27.5923H63.994C63.7082 27.5923 63.5367 27.3061 63.651 27.0771L70.6254 11.6782C70.6826 11.5065 70.8541 11.4492 70.9684 11.4492H72.7978ZM71.9403 13.7963L68.9104 20.7229H74.9701L71.9403 13.7963Z" fill="white"/>
</svg>
